/* XPM */
static char * gringotts_32_xpm[] = {
"32 32 249 2",
"  	c None",
". 	c #EFDCBB",
"+ 	c #EEDBBA",
"@ 	c #D8C4A1",
"# 	c #C7B18D",
"$ 	c #BFA984",
"% 	c #C0A985",
"& 	c #DEC9A7",
"* 	c #EDDAB8",
"= 	c #EDDAB9",
"- 	c #DECAA8",
"; 	c #E1CDAB",
"> 	c #DCC7A5",
", 	c #9A8159",
"' 	c #6C5025",
") 	c #64471B",
"! 	c #5D4014",
"~ 	c #54360A",
"{ 	c #533408",
"] 	c #533508",
"^ 	c #5A3C10",
"/ 	c #71552A",
"( 	c #91774F",
"_ 	c #D3BE9B",
": 	c #B69E79",
"< 	c #73572D",
"[ 	c #856A41",
"} 	c #DBC7A4",
"| 	c #EBD8B6",
"1 	c #BCA580",
"2 	c #583A0E",
"3 	c #523306",
"4 	c #A38B65",
"5 	c #E7D4B2",
"6 	c #CDB894",
"7 	c #604317",
"8 	c #C4AD89",
"9 	c #75592F",
"0 	c #70542A",
"a 	c #7C6137",
"b 	c #5D3F13",
"c 	c #4F3003",
"d 	c #684B21",
"e 	c #81663D",
"f 	c #8B7048",
"g 	c #5C3D12",
"h 	c #C8B18E",
"i 	c #B7A17C",
"j 	c #513306",
"k 	c #997F58",
"l 	c #ECD8B7",
"m 	c #E2CEAC",
"n 	c #DBC6A4",
"o 	c #9B815A",
"p 	c #C3AC88",
"q 	c #684B20",
"r 	c #7E6339",
"s 	c #DFCAA8",
"t 	c #C2AC88",
"u 	c #E6D2B1",
"v 	c #C9B48F",
"w 	c #523407",
"x 	c #4C2D00",
"y 	c #8E744C",
"z 	c #E8D5B3",
"A 	c #876C44",
"B 	c #6B4E23",
"C 	c #7F633A",
"D 	c #DFCBA9",
"E 	c #DDC9A7",
"F 	c #876C43",
"G 	c #63461B",
"H 	c #503104",
"I 	c #D7C3A0",
"J 	c #C7B18E",
"K 	c #5B3D11",
"L 	c #D7C29F",
"M 	c #C3AD89",
"N 	c #593B0F",
"O 	c #C0AA85",
"P 	c #A68E67",
"Q 	c #AD946E",
"R 	c #503205",
"S 	c #83683F",
"T 	c #B09872",
"U 	c #4D2E01",
"V 	c #A18962",
"W 	c #E0CCAA",
"X 	c #6D5026",
"Y 	c #6C4F25",
"Z 	c #927850",
"` 	c #765B31",
" .	c #B69F7A",
"..	c #AC946E",
"+.	c #AE9671",
"@.	c #BBA480",
"#.	c #55370A",
"$.	c #B7A07B",
"%.	c #E5D2B0",
"&.	c #90764D",
"*.	c #957C54",
"=.	c #D8C3A1",
"-.	c #B29A75",
";.	c #5E4014",
">.	c #7B5F36",
",.	c #E7D3B2",
"'.	c #937952",
").	c #8F754D",
"!.	c #C6B08C",
"~.	c #C5AF8A",
"{.	c #7E633A",
"].	c #7A5F35",
"^.	c #785C32",
"/.	c #987E57",
"(.	c #ECD9B8",
"_.	c #9C835B",
":.	c #AD956F",
"<.	c #CEB995",
"[.	c #8F764D",
"}.	c #D2BC99",
"|.	c #9E855E",
"1.	c #775B31",
"2.	c #63451A",
"3.	c #CFBA97",
"4.	c #83683E",
"5.	c #6E5127",
"6.	c #BEA883",
"7.	c #4D2F02",
"8.	c #8D734B",
"9.	c #E6D3B1",
"0.	c #A08760",
"a.	c #694C21",
"b.	c #674A1F",
"c.	c #D4BF9C",
"d.	c #977D56",
"e.	c #57390D",
"f.	c #AC946F",
"g.	c #AF9771",
"h.	c #523307",
"i.	c #937951",
"j.	c #5D3F14",
"k.	c #82673E",
"l.	c #65481D",
"m.	c #D2BD99",
"n.	c #E2CDAC",
"o.	c #C4AE8A",
"p.	c #E3CFAD",
"q.	c #E9D5B4",
"r.	c #A38A64",
"s.	c #C8B28E",
"t.	c #AE9771",
"u.	c #66491D",
"v.	c #9E865F",
"w.	c #A58C66",
"x.	c #A9916B",
"y.	c #593C0F",
"z.	c #846940",
"A.	c #AA926C",
"B.	c #755A30",
"C.	c #614318",
"D.	c #A38B64",
"E.	c #74582E",
"F.	c #D1BC99",
"G.	c #998059",
"H.	c #90764E",
"I.	c #82663D",
"J.	c #8A7047",
"K.	c #AD9670",
"L.	c #E5D1AF",
"M.	c #7C6037",
"N.	c #B19A74",
"O.	c #56370B",
"P.	c #E4D0AE",
"Q.	c #A78F69",
"R.	c #72562C",
"S.	c #DBC6A3",
"T.	c #CEB895",
"U.	c #66491E",
"V.	c #947A53",
"W.	c #8C7149",
"X.	c #B39C77",
"Y.	c #71552B",
"Z.	c #BDA681",
"`.	c #63461A",
" +	c #896F47",
".+	c #5F4116",
"++	c #C1AA86",
"@+	c #EEDBB9",
"#+	c #7F643B",
"$+	c #CDB794",
"%+	c #EBD7B6",
"&+	c #D6C19E",
"*+	c #C9B38F",
"=+	c #CCB793",
"-+	c #C5AF8B",
";+	c #775C32",
">+	c #614418",
",+	c #6B4F24",
"'+	c #DDC8A6",
")+	c #947A52",
"!+	c #543509",
"~+	c #91764F",
"{+	c #AB936D",
"]+	c #8C7249",
"^+	c #80653C",
"/+	c #967C54",
"(+	c #866C43",
"_+	c #D5C09D",
":+	c #B59E79",
"<+	c #B09973",
"[+	c #6F5228",
"}+	c #785C33",
"|+	c #8D734A",
"1+	c #684C20",
"2+	c #65471C",
"3+	c #886E45",
"4+	c #CFBA96",
"5+	c #E9D6B5",
"6+	c #7D6138",
"7+	c #D0BA97",
"8+	c #D9C5A2",
"9+	c #CCB692",
"0+	c #D5C09E",
"a+	c #795D34",
"b+	c #C9B390",
"c+	c #E8D4B3",
"d+	c #A48B65",
"e+	c #6A4D22",
"f+	c #8D724A",
"g+	c #5C3E12",
"h+	c #785D33",
"i+	c #896F46",
"j+	c #E5D1B0",
"k+	c #BDA682",
"l+	c #8F744C",
"m+	c #866B43",
"n+	c #8A6F47",
"o+	c #E3CFAE",
"p+	c #90774F",
"q+	c #BBA580",
"r+	c #7B6036",
"s+	c #BDA782",
"t+	c #BAA37F",
"u+	c #73562C",
"v+	c #CCB693",
"w+	c #DAC5A3",
"x+	c #BAA37E",
"y+	c #886D44",
"z+	c #CAB490",
"    . . . . . . . . . + @ # $ $ $ $ % # & * . . = - ; . . .     ",
"  . . . . . . . . . > , ' ) ! ~ { { ] ^ / ( _ + : < [ } . . .   ",
". . . . . . . . | 1 2 3 4 5 6 7 > 8 9 0 a b c d e f g h . . . . ",
". . . . . . . . i ! j k l . 6 7 m . n ( o p q r s - t u . . . . ",
". . . . . . . v w x y z . . 6 7 m . . + A B C D . . . . . . . . ",
". . . . . . E F G H I . . . J K L . . . M N O . . . . . . . . . ",
". . . . . . P Q R S . . . . T U V . . W X Y Z `  .= . . . . . . ",
". . . . . = e ..U +.. . . . @.#.$.. %.&.*.=.-.;.>.,.. . . . . . ",
". . . . . O '.).^ !.~.{.].^./.K L (._.:.. . <.[.}.. . . . . . . ",
". . . . . |.P 1.2.3.4.5.O 6.2 7.n : 8.9.. . . . . . . . . . . . ",
". . . . . A 0.a.b.c.d.e.f.. g.h.i.^ j.b.b.b.b.b.b.b.e } . . . . ",
". . . . . k.|.b.l.m.n.o.p.. _ b.e.' 9 9 9 9 9 9 H x |.q.. . . . ",
". . . . . [.r.' K s.. . . . t.] u.v.w.w.w.w.x.- y.z.. . . . . . ",
". . . . . P A.B.c  .. . . m C.x D.$ $ $ $ $ E.6 y.|.. . . . . . ",
". . . . . F.G.H.x k.. . p.I.J.K.L.= p ( z.# M.6 y.|.. . . . . . ",
". . . . . (.y N.x O.P.. Q.R.S.( T.v.U.V.O.W.M.6 y.|.. . . . . . ",
". . . . . . X.x.Y.x '.Z.5.m.& / `.M.I n i.!.M.6 y.|.. . . . . . ",
". . . . . . W  +..U.O..+++@+o.2 S m . . . . M.6 y.|.. . . . . . ",
". . . . . . . E #+x.U.K $+%+&+a.*+. . . . q.9 =+y.|.. . . . . . ",
". . . . . 5 f.o.-+;+( `.>+H.O ,+c.. . . '+)+#.[ !+|.. . . . . . ",
". . . . . ~+b.M.{+( ]+;+x x x x ^+|./+M.b.(+_+:+K |.. . . . . . ",
". . . . . <+[+}+Z & z *+|+1+#.x c 2+3+A.4+q.. . Z.6.. . . . . . ",
". . . . . . s E . . . . . . 5+6+7+. . . . . . . . . . . . . . . ",
". . . . . . . . . . . . . . . k.% . . . . . . . . . . . . . . . ",
". . . . . . &+t 8+@ 9+P A 1 0+a+-+$+|.X.b+6 6 6 F.c+. . . . . . ",
". . . . . . d+e+K.g.f+g+x 7 h+O.H.i+c !+R.M.M.M.H.'+. . . . . . ",
". . . . . . . . . . . | M j+8.X a 8 _+; . . . . . . . . . . . . ",
". . . . . . . . . . . . . k+l+D.:.m+- . P.D . . . . . . . . . . ",
". . . . . . . . . ..a.$ G.n+o+p+M - ).q+r+[+. . . . . . . . . . ",
". . . . . . . . . _+).r.s+P.t+K u+v+w+-.H.x+. . . . . . . . . . ",
"  . . . . . . . . . . . . . y+U.e+<+. . . . . . . . . . . . .   ",
"    . . . . . . . . . . . . o+z+0+| . . . . . . . . . . . .     "};
