/* XPM */
const char *gringotts_xpm[115] = {
"48 48 66 1",
" 	c None",
".	c #EFDCBB",
"+	c #E8D4B3",
"@	c #947A52",
"#	c #75592F",
"$	c #8E744C",
"%	c #C9B490",
"&	c #705329",
"*	c #513206",
"=	c #5E4015",
"-	c #4F3003",
";	c #4C2D00",
">	c #BDA681",
",	c #B09872",
"'	c #9E855E",
")	c #BAA37E",
"!	c #E3CFAD",
"~	c #D1BC99",
"{	c #543509",
"]	c #E0CCAA",
"^	c #C4AE8A",
"/	c #A38A64",
"(	c #EDDAB9",
"_	c #876C43",
":	c #91774F",
"<	c #967D55",
"[	c #C2AB87",
"}	c #846941",
"|	c #6D5126",
"1	c #72562C",
"2	c #63461A",
"3	c #8C7249",
"4	c #B29B75",
"5	c #66481D",
"6	c #775C32",
"7	c #5B3D12",
"8	c #AB936D",
"9	c #7A5E35",
"0	c #82673E",
"a	c #6B4E23",
"b	c #896F46",
"c	c #C7B18D",
"d	c #EBD7B6",
"e	c #B7A07B",
"f	c #E5D2B0",
"g	c #A08861",
"h	c #56380C",
"i	c #CCB693",
"j	c #BFA984",
"k	c #9B825B",
"l	c #7D6138",
"m	c #A8906A",
"n	c #684B20",
"o	c #A58D67",
"p	c #593B0F",
"q	c #604317",
"r	c #CEB996",
"s	c #997F58",
"t	c #DEC9A7",
"u	c #DBC7A4",
"v	c #D6C19E",
"w	c #AD956F",
"x	c #B59E78",
"y	c #7F643B",
"z	c #D4BE9B",
"A	c #D9C4A1",
"    ........................................    ",
"  ...............d)3|qqqqqqq2y8u.....]84(..... .",
" ..............dgp;-qq{;;;;;;;;;14d.j{;;<...... ",
" .............zn;;=i..b;uzk{{0p;;;p}-35;5...... ",
".............%{;;5]...b;u..u|aA,5;;-o./-'.......",
"............%{;;2]....b;u...+07~.b-)............",
"...........up;;-~.....b;u....(6{_;m.............",
"..........(|-;;s......b;u.....+n;0..............",
"..........g|y;{f......&;[.....(6;>(.............",
".........]{zh;3......+-;y.....$;;&&1^...........",
".........@_%;;^......~;;1....w;ai(m|-t..........",
"........d{cs;*d.......#;,...^-s(.%;;;z..........",
"........ep.a;|..4|q2_zb;c..vpe...f|pw...........",
"........30f;;}.j;_4gp-p;~.!5o...................",
"........akj;;<.3-9e.]2;;~(#a(...................",
"........h'o;;'.s;;#..i;;>3;=############4.......",
"........;'';;'.+}2e...y;n;;;;;;;;;;;;;;;e.......",
"........;'';;@........8;;2bbbbbbbbbb{;;s........",
"........p'm;;0.......(|;;8ccccccccv.q;3.........",
"........|'e;;5......./;;hqqqqqqqq*b.q;c.........",
"........3s~;;;!.....~-;;x........#b.q;c.........",
"........4l({;;,....+5-8o]...Akb).#b.q;c.........",
"........!hdy;;6....$;4+/t.f$-h=;[#b.q;c.........",
".........0,>;;;v..e;:.z*c)p;yrp;g#b.q;c.........",
".........i=f2;;}.v{#(.~;&;7).[q|z#b.q;c.........",
"..........}$^-;;/5q!..$;;3f......#b.q;c.........",
"..........!7,)-;;{~...q;5........#b.q;c.........",
"...........c*))-;|(...k;w........#b.q;c.........",
"............)-/)-;|c..4;c.......zp0.q;c.........",
"........t:yc.e;yw-;;#)o;c.....do{;;|{;c.........",
"........5;;n(0#ap0;;;;;;}cc[8_h;2>t6;;c.........",
"........p$ex|&+.42;;;;;;;;;;;-9)(..($;c.........",
"........w-a*0+....jb|q;;;plk>f.......jv.........",
".........tcu..........v;>.......................",
".......................;c.......................",
".......................;s.......................",
".................j$~..d;r..c>...................",
".........i*#84m@5;;;6o/;<86-pq6bbbbbb,..........",
".........i{#84,kl*;;2|;;9m9;--n######>..........",
".................fgc.,=h2,.ij+..................",
"....................d2e}:*).....................",
"...................(0a(bc[7%..d^]...............",
"..............3-4.~&5].6[.%7^.8;9...............",
".............._;#:{<+.[;}..~|12;3...............",
" .............+,')!..~{;;&]..^/)(.............. ",
" ....................&*=-;>.................... ",
"  ...................+@#$%....................  ",
"    ........................................    "};
